<svg width="300" height="243" viewBox="0 0 300 243" fill="none" xmlns="http://www.w3.org/2000/svg">
<g clip-path="url(#clip0)">
<path d="M116.138 235.589C125.647 230.947 129.462 219.965 130.788 209.775C131.009 208.077 131.507 206.322 130.954 204.681C130.401 203.039 128.743 201.737 127.14 202.19C125.813 202.586 125.039 203.945 124.154 205.02C122.993 206.492 121.39 207.568 119.621 208.134C118.46 208.53 117.133 208.643 116.138 207.851C114.867 206.775 115.033 204.737 115.309 203.039C115.862 199.869 116.415 196.755 116.912 193.585C117.189 191.887 117.465 190.189 117.244 188.49C117.023 186.792 116.083 185.094 114.59 184.414C113.098 183.678 110.997 184.301 110.389 185.886C110.112 186.566 110.168 187.301 110.002 187.981C109.836 188.66 109.394 189.396 108.73 189.453C108.067 189.509 107.459 188.943 107.072 188.377C105.634 186.396 104.861 183.962 104.142 181.584C103.423 179.206 102.76 176.772 101.488 174.678C100.272 172.526 98.3371 170.715 96.0152 170.149C93.6933 169.583 90.9292 170.658 89.9341 172.923C88.939 175.187 89.8788 177.848 91.0397 180.055C92.7535 183.282 94.9096 186.282 97.4526 188.887C97.8948 189.339 98.3924 189.849 98.503 190.528C98.6688 191.717 97.4526 192.679 96.2916 192.849C95.0201 193.076 93.6933 192.679 92.3665 192.623C91.0397 192.566 89.5471 192.906 88.8837 194.038C87.9439 195.623 89.0495 197.718 90.2105 199.133C92.5877 201.963 95.4624 204.398 98.6135 206.266C99.7745 206.945 100.935 207.568 101.82 208.587C102.649 209.606 102.981 211.247 102.207 212.323C101.433 213.398 99.8298 213.512 98.6135 213.059C97.3973 212.606 96.3469 211.7 95.2413 211.021C93.1405 209.775 90.1552 209.379 88.3861 211.134C87.2252 212.266 86.8382 214.134 87.0593 215.776C87.2805 217.418 88.0544 218.946 88.8837 220.361C91.8137 225.343 95.8494 229.645 100.825 232.476C105.8 235.25 110.61 236.608 116.138 235.589Z" fill="#253359"/>
<path d="M114.646 228.74C114.038 223.362 112.877 217.531 111.495 211.417C111.163 209.889 110.776 208.417 110.444 206.945C110.113 205.473 109.726 204.001 109.339 202.586C108.509 199.756 107.459 197.095 106.409 194.661C105.358 192.17 104.308 189.849 103.257 187.698C102.207 185.547 101.212 183.565 100.272 181.754C98.3372 178.187 96.4023 175.527 95.0202 173.715C94.3568 172.809 93.7487 172.13 93.417 171.677C93.2512 171.451 93.0853 171.281 92.9747 171.168C92.8642 171.055 92.8089 170.998 92.8089 170.998C92.8089 170.998 92.8642 171.055 92.9195 171.168C93.03 171.281 93.1406 171.451 93.3617 171.677C93.7487 172.13 94.2463 172.809 94.9649 173.715C96.2917 175.527 98.1714 178.187 100.106 181.754C101.101 183.509 102.041 185.547 103.092 187.698C104.087 189.849 105.192 192.17 106.187 194.661C107.238 197.152 108.233 199.756 109.062 202.586C109.504 204.001 109.836 205.416 110.168 206.888C110.5 208.36 110.886 209.889 111.218 211.36C112.6 217.418 113.761 223.248 114.425 228.626" fill="#B9B9B9"/>
<path d="M109.173 202.586C109.173 202.586 109.283 202.36 109.449 201.907C109.615 201.454 109.836 200.774 110.057 199.982C110.555 198.34 111.218 196.076 111.882 193.528C112.545 190.981 113.208 188.717 113.761 187.075C114.038 186.282 114.259 185.603 114.425 185.15C114.59 184.697 114.646 184.414 114.646 184.414C114.646 184.414 114.535 184.641 114.314 185.094C114.148 185.547 113.872 186.169 113.595 186.962C112.987 188.603 112.324 190.868 111.605 193.359C110.942 195.849 110.334 198.114 109.891 199.812C109.67 200.605 109.504 201.227 109.339 201.793C109.228 202.303 109.173 202.586 109.173 202.586Z" fill="#B9B9B9"/>
<path d="M88.6626 194.831C88.6626 194.831 88.939 194.944 89.4918 195.057C90.0446 195.227 90.8186 195.397 91.7584 195.68C93.6381 196.246 96.2916 197.095 99.1111 198.17C101.931 199.246 104.474 200.322 106.298 201.171C107.182 201.567 107.901 201.963 108.454 202.19C108.951 202.416 109.228 202.586 109.228 202.529C109.228 202.529 108.951 202.36 108.509 202.077C108.012 201.793 107.293 201.397 106.408 200.944C104.639 200.039 102.096 198.906 99.2769 197.831C96.4575 196.755 93.8039 195.906 91.869 195.453C90.9292 195.17 90.0999 195 89.6024 194.944C88.939 194.887 88.6626 194.831 88.6626 194.831Z" fill="#B9B9B9"/>
<path d="M114.424 228.287C114.424 228.287 114.48 228.23 114.59 228.06C114.701 227.89 114.867 227.607 115.088 227.324C115.53 226.702 116.083 225.796 116.802 224.607C118.239 222.286 120.119 219.059 122.164 215.436C124.21 211.813 126.034 208.53 127.416 206.209C128.079 205.077 128.632 204.114 129.075 203.435C129.24 203.152 129.406 202.869 129.517 202.699C129.627 202.529 129.683 202.416 129.627 202.416C129.627 202.416 129.572 202.473 129.462 202.643C129.351 202.812 129.185 203.095 128.964 203.379C128.522 204.001 127.969 204.907 127.25 206.096C125.813 208.417 123.933 211.644 121.888 215.267C119.842 218.89 118.018 222.173 116.636 224.494C115.972 225.626 115.42 226.588 114.977 227.268C114.811 227.551 114.646 227.834 114.535 228.004C114.48 228.23 114.424 228.287 114.424 228.287Z" fill="#B9B9B9"/>
<path d="M87.7782 214.134C87.7782 214.134 87.8887 214.191 88.0546 214.304C88.2757 214.417 88.4969 214.531 88.8286 214.7C89.5472 215.097 90.4871 215.606 91.7033 216.229C94.1357 217.531 97.3974 219.342 101.046 221.324C104.695 223.362 108.012 225.117 110.444 226.362C111.661 226.985 112.656 227.494 113.319 227.777C113.651 227.947 113.927 228.06 114.093 228.173C114.259 228.23 114.369 228.287 114.369 228.287C114.369 228.287 114.259 228.23 114.093 228.117C113.872 228.004 113.651 227.89 113.319 227.721C112.6 227.324 111.661 226.815 110.444 226.192C108.012 224.89 104.75 223.079 101.101 221.097C97.4527 219.059 94.1357 217.304 91.7033 216.059C90.4871 215.436 89.492 214.927 88.8286 214.644C88.4969 214.474 88.2204 214.361 88.0546 214.248C87.8887 214.134 87.7782 214.134 87.7782 214.134Z" fill="#B9B9B9"/>
<g opacity="0.5">
<path d="M65.4098 29.2196L59.8454 27.5213C59.8454 27.5213 58.3692 32.1632 53.543 30.748C51.0447 30.0121 50.2498 27.9741 50.0794 26.5589C49.9091 24.9172 50.6472 23.3322 51.8964 22.2C53.3158 20.9546 55.8141 20.162 59.3344 21.9735L63.2522 9.51948L57.8014 7.8212L55.5302 15.1238C55.5302 15.1238 47.2405 14.7275 44.5719 23.1623C42.0168 31.2575 48.7167 35.39 51.8396 36.3523C54.1675 37.0317 62.4572 38.9564 65.4098 29.2196Z" fill="white"/>
<path d="M58.4743 5.18778L64.057 6.92418L65.6802 1.7364L60.0975 -1.55359e-06L58.4743 5.18778Z" fill="white"/>
</g>
<g opacity="0.5">
<path d="M80.6834 15.1238L82.8978 14.5577C82.8978 14.5577 82.3868 12.6896 84.3172 12.1801C85.3393 11.8971 86.0206 12.4066 86.3613 12.8594C86.7587 13.3689 86.8723 14.0482 86.702 14.6709C86.4748 15.4069 85.7935 16.1428 84.2605 16.3126L85.5664 21.2942L87.7808 20.7281L86.9859 17.7844C86.9859 17.7844 89.8816 16.1994 88.9731 12.8028C88.1214 9.57608 84.9986 9.57608 83.7495 9.91574C82.7842 10.1422 79.6046 11.2178 80.6834 15.1238Z" fill="#EBEBEB"/>
<path d="M88.0889 21.704L85.838 22.2961L86.3884 24.3761L88.6393 23.784L88.0889 21.704Z" fill="#EBEBEB"/>
</g>
<g opacity="0.5">
<path d="M263.966 72.4125L266.123 73.2051C266.123 73.2051 266.805 71.3936 268.678 72.0729C269.643 72.4125 269.927 73.2051 269.984 73.7712C270.041 74.4505 269.7 75.0732 269.189 75.4694C268.621 75.9223 267.599 76.2054 266.237 75.4128L264.477 80.2812L266.634 81.0738L267.656 78.2433C267.656 78.2433 270.949 78.5263 272.142 75.243C273.277 72.0729 270.722 70.318 269.53 69.9217C268.565 69.5255 265.328 68.6197 263.966 72.4125Z" fill="#EBEBEB"/>
<path d="M266.302 82.0472L264.113 81.2567L263.378 83.2792L265.567 84.0697L266.302 82.0472Z" fill="#EBEBEB"/>
</g>
<g opacity="0.5">
<path d="M34.9764 97.0376L39.5187 95.2827C39.5187 95.2827 38.0424 91.4333 42.0169 89.8482C44.061 88.9991 45.6508 89.9614 46.5025 90.8106C47.4677 91.8295 47.8652 93.2448 47.5813 94.6034C47.2974 96.1885 46.0482 98 42.7551 98.6227L46.7296 108.869L51.2719 107.114L48.944 101.113C48.944 101.113 54.6219 97.0376 51.9533 90.0747C49.3982 83.3948 42.8118 84.1873 40.2568 85.1496C38.2695 86.0554 31.7967 89.0557 34.9764 97.0376Z" fill="white"/>
<path d="M52.1591 109.326L47.6028 111.076L49.2562 115.354L53.8125 113.604L52.1591 109.326Z" fill="white"/>
</g>
<g opacity="0.5">
<path d="M265.726 114.36L262.49 115.606C262.49 115.606 263.512 118.323 260.729 119.455C259.253 120.021 258.118 119.398 257.55 118.776C256.868 118.04 256.585 117.021 256.755 116.058C256.982 114.926 257.834 113.681 260.162 113.228L257.323 105.982L254.143 107.227L255.79 111.473C255.79 111.473 251.758 114.36 253.632 119.285C255.449 123.984 260.105 123.474 261.922 122.795C263.398 122.172 267.997 120.021 265.726 114.36Z" fill="white"/>
<path d="M253.594 105.638L256.826 104.397L255.662 101.386L252.43 102.627L253.594 105.638Z" fill="white"/>
</g>
<path opacity="0.5" d="M299.056 239.693C299.056 240.793 232.08 242.992 149.528 242.992C66.9083 242.992 0 241.892 0 239.693C0 237.495 66.9083 236.395 149.528 236.395C232.147 236.395 299.056 237.495 299.056 239.693Z" fill="#4A4A6F"/>
<path d="M267.538 24.1974C267.538 35.1274 258.677 43.9879 247.747 43.9879C242.678 43.9879 238.055 42.0823 234.554 38.9486C233.537 38.0388 226.491 39.59 226.491 39.59C226.491 39.59 230.398 33.8131 229.851 32.6584C228.636 30.093 227.957 27.2246 227.957 24.1974C227.957 13.2674 236.817 4.40697 247.747 4.40697C258.677 4.40697 267.538 13.2674 267.538 24.1974Z" fill="#1ABFF3"/>
<path d="M242.39 19.4426H245.418C245.418 19.4426 245.418 16.9517 248.068 16.8763C249.431 16.8763 250.112 17.782 250.415 18.4613C250.718 19.2916 250.642 20.1219 250.188 20.8767C249.658 21.7069 248.522 22.4617 246.554 22.1598V28.9529H249.506V24.9525C249.506 24.9525 253.67 23.8958 253.67 19.2916C253.67 14.9138 249.733 13.8571 247.992 13.8571C246.781 13.8571 242.39 14.159 242.39 19.4426Z" fill="white"/>
<path d="M249.582 30.3116H246.554V33.1043H249.582V30.3116Z" fill="white"/>
<path d="M89.9384 90.9804H122.757C122.757 90.9804 122.757 63.5249 151.373 63.0154C166.249 62.7323 173.914 72.4691 177.094 79.885C180.728 88.5462 179.649 98.3396 174.766 106.378C169.202 115.549 157.221 124.72 135.134 120.814L134.907 193.67H167.271V150.477C167.271 150.477 212.751 138.759 212.751 88.7727C212.751 40.9377 173.971 30.6348 153.133 29.9555C141.55 29.5592 137.349 29.1063 122.984 31.1443C104.758 33.7483 89.5977 54.9202 89.9384 90.9804Z" fill="#4A4A6F"/>
<path d="M167.725 208.898H134.794V239.524H167.725V208.898Z" fill="#4A4A6F"/>
<path d="M76.3682 90.9804H109.186C109.186 90.9804 109.186 63.5249 137.803 63.0154C152.679 62.7323 160.344 72.4691 163.524 79.885C167.158 88.5462 166.079 98.3396 161.196 106.378C155.632 115.549 143.424 123.814 121.337 119.964V193.67H153.758V150.477C153.758 150.477 199.238 138.759 199.238 88.7727C199.238 40.9377 156.256 29.8423 137.803 29.8423C123.722 29.8989 75.7437 33.2954 76.3682 90.9804Z" fill="#999FB0"/>
<path d="M154.155 208.898H121.224V239.524H154.155V208.898Z" fill="#999FB0"/>
<path d="M141.494 63.1852C141.494 63.1852 141.323 63.1852 140.983 63.1286C140.642 63.1286 140.188 63.0154 139.563 63.0154C138.371 62.9588 136.554 62.9587 134.396 63.2418C132.239 63.5248 129.684 64.0343 126.958 64.9967C125.595 65.5062 124.176 66.0157 122.813 66.7516C121.394 67.4309 120.031 68.3366 118.782 69.3556C117.476 70.3746 116.397 71.62 115.489 72.8654C114.524 74.1108 113.729 75.3562 112.991 76.6016C111.571 79.0924 110.663 81.5266 110.038 83.6212C109.413 85.7157 109.186 87.4706 109.073 88.6594C109.016 89.2821 108.959 89.735 108.959 90.0747C108.959 90.4143 108.902 90.5841 108.902 90.5841C108.902 90.5841 108.902 90.4143 108.902 90.0747C108.902 89.735 108.902 89.2821 108.959 88.6594C109.016 87.4706 109.3 85.6591 109.868 83.5646C110.435 81.47 111.401 79.0358 112.763 76.4884C113.502 75.243 114.296 73.941 115.262 72.6956C116.227 71.4502 117.306 70.2048 118.612 69.1292C119.918 68.0536 121.28 67.2045 122.7 66.4685C124.119 65.7326 125.539 65.1665 126.901 64.7136C129.627 63.8079 132.239 63.2418 134.396 63.0154C136.554 62.7889 138.371 62.7889 139.563 62.9021C140.188 62.9021 140.642 63.0154 140.983 63.072C141.323 63.1286 141.494 63.1852 141.494 63.1852Z" fill="#263238"/>
<path d="M190.891 57.3544C190.891 57.3544 190.834 57.2978 190.778 57.2412C190.721 57.128 190.607 57.0148 190.494 56.8449C190.21 56.5053 189.869 55.9958 189.415 55.3165C189.188 54.9768 188.904 54.5806 188.62 54.2409C188.279 53.8447 187.939 53.4484 187.598 52.9955C187.257 52.5426 186.86 52.0898 186.406 51.5803C185.951 51.0708 185.497 50.6179 184.986 50.0518C184.475 49.5423 183.964 48.9762 183.396 48.4101C182.829 47.9007 182.204 47.3346 181.579 46.7685C181.239 46.4854 180.955 46.2024 180.614 45.9193C180.274 45.6363 179.933 45.3532 179.535 45.0702C178.797 44.5041 178.116 43.938 177.321 43.3719C174.198 41.1075 170.564 38.9564 166.59 37.0317C165.568 36.5788 164.603 36.1259 163.581 35.673C162.559 35.2768 161.593 34.8805 160.628 34.5408C159.663 34.1446 158.698 33.8615 157.732 33.5219C156.767 33.2388 155.859 32.8992 154.893 32.6727C153.985 32.4463 153.076 32.2199 152.168 31.9368C151.316 31.7104 150.408 31.5405 149.556 31.3707C148.704 31.2009 147.91 31.0311 147.115 30.9178C146.32 30.8046 145.582 30.6914 144.844 30.5782C143.424 30.3517 142.118 30.2951 140.926 30.1819C140.358 30.1253 139.79 30.0687 139.336 30.0687C138.825 30.0687 138.371 30.0687 137.973 30.0121C137.178 30.0121 136.554 29.9555 136.1 29.9555C135.872 29.9555 135.759 29.9555 135.589 29.9555C135.475 29.9555 135.418 29.9555 135.418 29.9555C135.418 29.9555 135.475 29.9555 135.589 29.9555C135.702 29.9555 135.872 29.9555 136.1 29.9555C136.554 29.9555 137.178 29.9555 137.973 29.9555C138.371 29.9555 138.825 29.9555 139.336 29.9555C139.847 29.9555 140.358 30.0121 140.926 30.0687C142.061 30.1819 143.424 30.1819 144.844 30.4084C145.582 30.5216 146.32 30.6348 147.115 30.6914C147.91 30.8046 148.704 30.9745 149.556 31.1443C150.408 31.3141 151.26 31.4273 152.168 31.7104C153.076 31.9368 153.985 32.1632 154.893 32.3897C155.859 32.6161 156.767 32.9558 157.732 33.2388C158.698 33.5785 159.663 33.8615 160.628 34.2578C161.593 34.6541 162.615 34.9937 163.637 35.39C164.603 35.8429 165.625 36.2957 166.647 36.7486C170.678 38.6733 174.312 40.8245 177.435 43.1455C178.23 43.7116 178.911 44.3343 179.649 44.9004C179.99 45.1834 180.33 45.4665 180.728 45.7495C181.068 46.0326 181.352 46.3156 181.693 46.5986C182.318 47.1647 182.942 47.7308 183.51 48.2969C184.078 48.863 184.589 49.4291 185.1 49.9386C185.611 50.4481 186.065 50.9576 186.519 51.4671C186.917 51.9765 187.314 52.486 187.655 52.9389C187.995 53.3918 188.336 53.788 188.677 54.1843C188.961 54.5806 189.188 54.9768 189.415 55.3165C189.869 55.9958 190.21 56.5053 190.437 56.9016C190.551 57.0714 190.607 57.1846 190.721 57.2978C190.891 57.2978 190.891 57.3544 190.891 57.3544Z" fill="#263238"/>
<path d="M187.484 127.55C187.484 127.55 187.428 127.663 187.257 127.89C187.087 128.116 186.803 128.456 186.519 128.852C186.179 129.248 185.781 129.758 185.27 130.324C184.759 130.89 184.248 131.513 183.567 132.192C182.942 132.871 182.204 133.607 181.409 134.343C180.614 135.136 179.762 135.872 178.797 136.721C176.924 138.362 174.766 140.004 172.438 141.646C170.053 143.288 167.725 144.646 165.568 145.835C164.489 146.401 163.41 146.967 162.445 147.42C161.48 147.929 160.514 148.326 159.663 148.665C158.811 149.062 158.016 149.345 157.335 149.571C156.653 149.854 156.029 150.024 155.518 150.194C155.064 150.364 154.666 150.477 154.382 150.59C154.098 150.647 153.985 150.703 153.985 150.703C153.985 150.703 154.098 150.647 154.382 150.534C154.666 150.42 155.064 150.307 155.518 150.137C156.029 149.967 156.597 149.741 157.278 149.458C157.959 149.175 158.754 148.892 159.606 148.496C160.458 148.099 161.423 147.703 162.388 147.25C163.41 146.797 164.432 146.231 165.511 145.665C167.669 144.476 169.997 143.061 172.381 141.476C174.709 139.834 176.867 138.193 178.74 136.551C179.649 135.758 180.557 134.966 181.352 134.23C182.147 133.494 182.885 132.758 183.51 132.079C184.191 131.4 184.759 130.777 185.27 130.267C185.781 129.758 186.179 129.248 186.519 128.852C186.86 128.456 187.144 128.173 187.314 127.946C187.371 127.663 187.484 127.55 187.484 127.55Z" fill="#263238"/>
<path d="M154.382 237.429C154.326 237.429 154.212 231.032 154.212 223.163C154.212 215.295 154.269 208.898 154.382 208.898C154.439 208.898 154.553 215.295 154.553 223.163C154.553 231.032 154.496 237.429 154.382 237.429Z" fill="#263238"/>
<path d="M186.69 86.6215C186.122 87.7537 188.223 88.6594 189.472 89.0557C190.721 89.4519 192.027 89.3953 193.276 89.3387C194.979 89.2255 196.739 89.1123 198.216 88.2631C199.522 87.5272 200.487 86.2818 201.168 84.9232C201.85 83.5646 202.247 82.1493 202.644 80.6775C202.644 80.6775 189.245 81.5832 186.69 86.6215Z" fill="#1ABFF3"/>
<g opacity="0.4">
<path opacity="0.8" d="M186.69 86.6215C186.122 87.7537 188.223 88.6594 189.472 89.0557C190.721 89.4519 192.027 89.3953 193.276 89.3387C194.979 89.2255 196.739 89.1123 198.216 88.2631C199.522 87.5272 200.487 86.2818 201.168 84.9232C201.85 83.5646 202.247 82.1493 202.644 80.6775C202.644 80.6775 189.245 81.5832 186.69 86.6215Z" fill="black"/>
</g>
<path d="M224.561 82.9985C226.776 84.5835 229.444 85.3761 232.113 85.3761C233.419 85.3761 234.781 85.093 235.747 84.2439C236.201 83.8476 236.485 83.3381 236.939 82.9419C237.223 82.6588 237.62 82.489 237.904 82.2059C238.188 81.9229 238.415 81.5266 238.302 81.1304C238.188 80.7341 237.904 80.0548 237.507 79.885C235.974 79.0358 234.1 79.0358 232.34 79.0924C230.58 79.149 228.82 79.5453 227.116 80.1114C225.754 80.5643 224.277 81.2436 223.596 82.489" fill="#1ABFF3"/>
<g opacity="0.4">
<path opacity="0.8" d="M238.358 81.1304C238.245 80.7341 237.734 80.168 237.336 79.9982C235.803 79.149 234.157 79.0358 232.397 79.0924C230.637 79.149 228.876 79.5453 227.23 80.1114C225.867 80.5643 224.391 81.2436 223.709 82.489L224.561 82.9985C226.776 84.5835 229.444 85.3761 232.113 85.3761C233.419 85.3761 234.781 85.093 235.747 84.2439C236.201 83.8476 236.485 83.3381 236.939 82.9419C237.223 82.6588 237.62 82.489 237.904 82.2059C238.188 81.9229 238.415 81.5266 238.358 81.1304Z" fill="black"/>
</g>
<path d="M198.386 103.321L226.719 103.718C226.946 103.718 227.173 103.491 227.059 103.265L223.766 92.9617C223.766 92.9617 224.277 87.8103 224.959 81.5832C225.981 72.1861 227.343 60.2981 227.343 60.3547C225.413 54.9202 214 54.0145 214 54.0145L200.998 54.807L200.544 54.0711L196.796 55.826C196.001 56.2222 195.206 56.6751 194.468 57.128C191.97 58.7697 186.008 62.5625 184.929 66.8082C182.431 76.545 186.69 87.4706 186.69 87.4706L189.415 85.3195C190.153 84.7534 190.834 84.3005 191.573 83.8476L197.08 98.5095C197.08 98.5095 195.945 99.1888 195.888 100.378C195.717 101.51 196.342 102.925 198.386 103.321Z" fill="#1ABFF3"/>
<g opacity="0.3">
<path opacity="0.3" d="M210.537 86.0554C211.445 81.2436 210.934 76.3186 210.48 71.4501C208.89 75.4128 208.947 79.9416 207.3 83.8476C207.13 84.3005 206.903 84.6967 206.846 85.1496C206.789 85.6025 206.903 86.112 207.244 86.4516C207.698 86.8479 208.379 86.6215 209.004 86.5649C209.571 86.4516 209.912 86.2252 210.537 86.0554Z" fill="black"/>
</g>
<g opacity="0.4">
<path opacity="0.4" d="M200.089 97.2074C202.36 98 204.802 96.5281 207.187 96.2451C208.776 96.0752 210.366 96.4149 211.956 96.698C215.136 97.2074 218.429 97.3207 221.609 96.9244C222.12 96.8678 222.574 96.8112 223.028 96.5847C223.482 96.3583 223.823 95.679 223.766 95.1695C218.429 94.6034 213.092 94.3204 207.754 93.7543C206.392 93.641 205.029 93.4712 203.723 93.8675C202.133 94.377 200.884 95.6224 199.749 96.8678" fill="black"/>
</g>
<path d="M237.507 79.2623C235.179 74.0542 227.059 59.732 227.059 59.732L220.757 67.6007L222.233 83.1117C222.233 83.1117 225.583 79.3755 234.895 79.3189C237.053 79.3189 238.358 81.1304 238.358 81.1304L237.507 79.2623Z" fill="#1ABFF3"/>
<path d="M199.635 76.545C199.578 76.545 199.067 75.0731 198.556 73.1484C198.045 71.2803 197.705 69.6953 197.762 69.6953C197.818 69.6953 198.329 71.1671 198.84 73.0918C199.351 74.9599 199.692 76.545 199.635 76.545Z" fill="#263238"/>
<path d="M220.246 66.5818C220.246 66.5818 220.473 66.7516 220.814 67.0912C221.154 67.4309 221.665 67.9404 222.233 68.6197C223.312 69.9783 224.675 72.1295 225.242 74.7901C225.526 76.0921 225.583 77.3941 225.413 78.5829C225.242 79.7151 225.072 80.7341 224.902 81.6398C224.731 82.489 224.675 83.2249 224.618 83.6778C224.561 84.1873 224.561 84.4137 224.561 84.4137C224.561 84.4137 224.504 84.1307 224.504 83.6778C224.504 83.1683 224.561 82.489 224.675 81.5832C224.788 80.7341 225.015 79.6585 225.129 78.5263C225.242 77.3941 225.186 76.0921 224.902 74.8467C224.334 72.2427 223.085 70.1481 222.006 68.7895C221.041 67.3177 220.246 66.6384 220.246 66.5818Z" fill="#263238"/>
<path d="M214.511 102.076C214.511 102.076 214.284 102.132 213.887 102.246C213.66 102.302 213.432 102.359 213.148 102.415C212.865 102.472 212.524 102.529 212.183 102.529C211.445 102.585 210.537 102.585 209.571 102.529C208.606 102.415 207.527 102.246 206.449 101.906C205.37 101.566 204.405 101.113 203.496 100.661C202.644 100.151 201.906 99.6982 201.338 99.1888C201.055 98.9623 200.827 98.7359 200.6 98.5095C200.373 98.3396 200.203 98.1132 200.089 98C199.805 97.7169 199.692 97.4905 199.692 97.4905C199.749 97.4339 200.316 98.1132 201.509 99.0189C202.077 99.4718 202.815 99.9247 203.666 100.378C204.518 100.83 205.483 101.227 206.562 101.566C207.641 101.906 208.663 102.076 209.628 102.189C210.593 102.302 211.445 102.302 212.183 102.246C213.603 102.246 214.454 102.019 214.511 102.076Z" fill="#263238"/>
<path d="M223.255 98.8491C223.312 98.8491 223.426 99.1322 223.482 99.6983C223.539 100.208 223.539 100.944 223.312 101.736C223.085 102.529 222.631 103.151 222.176 103.491C221.779 103.831 221.438 103.944 221.438 103.944C221.438 103.887 221.665 103.718 222.063 103.378C222.403 103.038 222.801 102.416 223.028 101.68C223.426 100.208 223.142 98.8491 223.255 98.8491Z" fill="#263238"/>
<path d="M221.665 100.887C221.722 100.887 221.892 101.68 221.495 102.642C221.154 103.604 220.473 104.114 220.416 104.001C220.359 103.944 220.87 103.378 221.211 102.529C221.609 101.623 221.609 100.887 221.665 100.887Z" fill="#263238"/>
<path d="M216.612 82.2626C216.669 82.3192 216.158 82.9419 215.59 83.7344C215.022 84.5269 214.682 85.2062 214.625 85.2062C214.568 85.2062 214.795 84.4137 215.363 83.5646C215.931 82.7154 216.555 82.206 216.612 82.2626Z" fill="#263238"/>
<path d="M197.194 68.5065C197.137 68.5631 196.739 68.1668 195.945 67.6573C195.15 67.1478 194.071 66.5251 192.708 66.0157C191.402 65.5062 190.153 65.2797 189.188 65.1665C188.279 65.0533 187.712 64.9967 187.712 64.9967C187.712 64.9401 188.279 64.8835 189.245 64.9967C190.153 65.0533 191.459 65.2797 192.822 65.7892C194.184 66.2987 195.32 66.978 196.058 67.5441C196.796 68.1102 197.194 68.5065 197.194 68.5065Z" fill="#263238"/>
<path d="M227.059 59.5622C227.116 59.6188 225.583 60.5812 224.164 62.2228C222.744 63.8645 222.12 65.5628 222.006 65.5062C221.949 65.5062 222.12 65.0533 222.404 64.4306C222.687 63.7513 223.198 62.9021 223.937 62.053C224.675 61.2039 225.413 60.5812 226.037 60.1283C226.605 59.732 227.059 59.5056 227.059 59.5622Z" fill="#263238"/>
<path d="M215.363 54.8636C215.363 54.8636 215.42 54.9768 215.476 55.1466C215.533 55.3165 215.647 55.5995 215.76 55.9392C215.931 56.6185 216.044 57.7507 215.76 58.9961C215.476 60.2415 214.738 61.7133 213.432 62.9021C212.126 64.0909 210.196 64.7703 208.209 64.7703C206.221 64.7703 204.291 64.0909 202.928 63.0154C201.509 61.9964 200.6 60.6378 200.033 59.5056C199.465 58.3168 199.181 57.2978 199.067 56.6185C199.011 56.2788 198.954 55.9958 198.954 55.7694C198.954 55.5995 198.954 55.4863 198.954 55.4863C199.011 55.4863 199.011 55.8826 199.181 56.5619C199.351 57.2412 199.635 58.2602 200.203 59.3924C200.827 60.5245 201.736 61.77 203.099 62.7889C204.461 63.8079 206.278 64.4306 208.209 64.4872C210.139 64.4872 212.013 63.8079 213.262 62.7323C214.511 61.6001 215.249 60.1849 215.533 58.9961C215.817 57.7507 215.76 56.6751 215.647 55.9958C215.533 55.2599 215.306 54.9202 215.363 54.8636Z" fill="#263238"/>
<g opacity="0.3">
<path opacity="0.3" d="M217.35 83.2249C217.35 82.9419 217.293 82.6022 217.066 82.489C216.896 82.3758 216.726 82.4324 216.555 82.489C216.385 82.5456 216.271 82.7154 216.158 82.8287C215.476 83.5646 214.965 84.3005 214.625 85.2629L217.407 85.0364C217.407 84.4137 217.35 83.8476 217.35 83.2249Z" fill="black"/>
</g>
<g opacity="0.3">
<path opacity="0.3" d="M226.605 77.3941C226.378 75.8091 225.583 74.3372 224.561 73.0918C225.753 76.9979 225.356 79.2056 224.675 81.9229L224.845 81.5266C225.64 79.9982 226.832 78.9792 226.605 77.3941Z" fill="black"/>
</g>
<path d="M221.041 209.011L219.338 234.372L208.266 234.259L206.505 207.879L221.041 209.011Z" fill="#FFBE9D"/>
<path d="M219.678 231.032V231.768C219.678 231.768 232.17 236.75 232.283 239.127L207.471 238.957L207.868 230.749C211.559 232.504 215.42 232.73 219.678 231.032Z" fill="white"/>
<path d="M210.366 233.41C209.912 233.523 209.572 234.089 209.685 234.542C209.799 235.051 210.31 235.391 210.821 235.278C211.275 235.165 211.729 234.542 211.559 234.032C211.388 233.58 210.764 233.183 210.31 233.41" fill="white"/>
<path d="M207.471 239.014L207.584 237.033L231.318 237.882C231.318 237.882 232.397 238.391 232.283 239.127L207.471 239.014Z" fill="#263238"/>
<path d="M219.735 231.825C219.735 231.938 219.11 231.994 218.543 232.391C217.918 232.787 217.634 233.296 217.521 233.24C217.407 233.24 217.577 232.504 218.316 232.051C219.054 231.598 219.792 231.768 219.735 231.825Z" fill="#263238"/>
<path d="M222.347 232.957C222.347 233.07 221.836 233.296 221.438 233.806C220.984 234.315 220.927 234.825 220.757 234.825C220.643 234.825 220.587 234.146 221.098 233.523C221.609 232.844 222.347 232.844 222.347 232.957Z" fill="#263238"/>
<path d="M223.766 236.07C223.653 236.07 223.482 235.504 223.823 234.825C224.107 234.146 224.732 233.919 224.732 234.032C224.788 234.146 224.448 234.485 224.164 235.051C223.937 235.504 223.937 236.014 223.766 236.07Z" fill="#263238"/>
<path d="M218.997 23.3322C219.621 21.7471 218.883 19.8224 217.464 18.8034C216.101 17.7844 214.227 17.558 212.524 17.8411C210.821 18.1241 209.231 18.8034 207.698 19.5393C206.278 18.1241 204.007 17.558 202.133 18.1807C200.203 18.8034 198.727 20.5583 198.443 22.5396C197.25 22.2566 195.831 22.6529 194.979 23.5586C194.128 24.4644 193.844 25.8796 194.298 27.0684L201.963 29.729L210.366 44.4475C212.808 46.542 216.839 46.4854 219.224 44.3343C221.609 42.1831 222.063 38.2204 220.246 35.5598C220.7 35.1635 221.098 34.654 221.438 34.088C222.744 33.2954 223.823 31.9934 224.164 30.465C224.845 27.2948 222.29 23.7284 218.997 23.3322Z" fill="#263238"/>
<path d="M213.943 53.9579C213.489 51.5803 213.149 49.9386 213.149 49.9386C213.149 49.9386 217.691 48.1837 217.35 41.9001C217.18 38.7865 215.987 33.8049 214.909 29.7856C213.887 26.1626 210.537 22.2 206.96 23.3322L196.172 28.5968C195.093 28.9365 194.923 29.9555 195.15 31.0877V31.6538L199.351 49.0328L201.111 56.7883C201.906 60.0717 205.086 62.2228 208.436 61.77C212.183 61.2039 214.682 57.6375 213.943 53.9579Z" fill="#FFBE9D"/>
<path d="M214.795 33.9747C214.909 34.371 214.625 34.8239 214.227 34.9371C213.773 35.0503 213.376 34.8239 213.262 34.4276C213.149 34.0313 213.433 33.5785 213.83 33.4652C214.284 33.352 214.682 33.5785 214.795 33.9747Z" fill="#263238"/>
<path d="M214.341 32.7859C214.284 32.8992 213.603 32.6161 212.751 32.7859C211.899 32.9558 211.388 33.5219 211.275 33.4086C211.218 33.352 211.275 33.1822 211.502 32.8992C211.729 32.6727 212.126 32.3897 212.694 32.2765C213.205 32.1632 213.716 32.2765 214 32.3897C214.227 32.5595 214.398 32.7293 214.341 32.7859Z" fill="#263238"/>
<path d="M206.562 35.8995C206.676 36.2957 206.392 36.7486 205.994 36.8618C205.54 36.975 205.143 36.7486 205.029 36.3523C204.915 35.9561 205.199 35.5032 205.597 35.39C206.051 35.2201 206.505 35.4466 206.562 35.8995Z" fill="#263238"/>
<path d="M206.165 34.7673C206.108 34.8805 205.427 34.5974 204.575 34.7673C203.723 34.9371 203.212 35.5032 203.099 35.39C203.042 35.3334 203.099 35.1635 203.326 34.8805C203.553 34.6541 203.95 34.371 204.461 34.2578C204.972 34.1446 205.483 34.2578 205.767 34.371C206.108 34.5408 206.221 34.7107 206.165 34.7673Z" fill="#263238"/>
<path d="M210.48 40.0885C210.48 40.0319 210.991 39.8621 211.786 39.5791C212.013 39.5225 212.183 39.4092 212.183 39.296C212.183 39.1262 212.07 38.8997 211.899 38.6733C211.615 38.2204 211.275 37.7109 210.934 37.1449C209.571 34.9937 208.493 33.2388 208.606 33.1822C208.72 33.1256 209.855 34.8239 211.275 36.975C211.615 37.4845 211.899 37.994 212.24 38.5035C212.354 38.7299 212.581 38.9564 212.524 39.296C212.524 39.4658 212.354 39.6357 212.24 39.6923C212.127 39.7489 212.013 39.8055 211.899 39.8055C210.991 40.0319 210.48 40.1452 210.48 40.0885Z" fill="#263238"/>
<path d="M213.148 49.9386C213.148 49.9386 209.117 51.0708 204.518 49.4857C204.518 49.4857 207.471 53.3352 213.489 51.5237L213.148 49.9386Z" fill="#EB996E"/>
<path d="M206.335 33.5785C206.278 33.8049 205.426 33.8049 204.404 34.0313C203.382 34.2578 202.644 34.6541 202.474 34.4276C202.417 34.3144 202.531 34.088 202.815 33.8615C203.098 33.5785 203.609 33.2954 204.177 33.1822C204.745 33.069 205.313 33.069 205.71 33.1822C206.165 33.2954 206.335 33.4653 206.335 33.5785Z" fill="#263238"/>
<path d="M214 30.1253C213.887 30.3517 213.149 30.2951 212.297 30.465C211.445 30.5782 210.821 30.9178 210.593 30.748C210.48 30.6914 210.594 30.465 210.821 30.1819C211.105 29.9555 211.559 29.6724 212.127 29.5592C212.694 29.446 213.205 29.5026 213.546 29.6724C213.943 29.8422 214.057 30.0121 214 30.1253Z" fill="#263238"/>
<path d="M198.783 24.5776C199.011 25.823 199.862 26.8986 200.941 27.4647C202.02 28.0307 203.383 28.144 204.575 27.6345C205.483 27.2948 206.392 26.6155 207.3 26.8986C208.266 27.2382 208.549 28.5402 209.458 28.9931C210.707 29.729 212.24 28.4836 213.716 28.5968C214.852 28.7101 215.704 29.5592 216.612 30.2385C217.52 30.9178 218.713 31.5405 219.678 30.9744C219.394 30.0121 219.167 29.1063 218.656 28.2572C218.202 27.408 217.464 26.6721 216.555 26.2759C216.044 26.106 215.533 25.9928 215.022 25.7664C214 25.2569 213.546 24.0681 212.808 23.1623C211.843 22.0302 210.31 21.4074 208.833 21.5773C207.584 21.6905 206.449 22.3132 205.199 22.2566C204.291 22.2 203.439 21.8037 202.474 21.8037C200.714 21.8603 199.351 23.3888 198.386 24.8606" fill="#263238"/>
<path d="M204.745 25.8796C203.95 25.823 202.247 25.6532 201.736 25.0871C200.544 23.8417 198.783 23.1623 197.194 23.6152C195.604 24.0115 194.298 25.5965 194.355 27.4081C192.424 27.8043 190.778 29.446 190.21 31.4839C189.642 33.5219 190.21 35.8995 191.629 37.4279C191.97 37.8242 192.538 38.7865 192.538 38.7865C192.538 38.7865 191.8 39.6923 191.516 40.315C190.21 43.2021 193.73 44.2777 193.73 44.2777C193.73 46.2024 195.547 46.2024 196.683 46.2024C197.761 46.2024 198.443 49.2593 199.351 49.0895L198.386 39.6357C198.499 39.6923 198.613 39.6923 198.783 39.6923C200.941 39.7489 200.373 35.673 199.692 34.5974C200.316 33.8049 200.884 32.9558 201.282 31.9934C201.679 31.0311 201.679 28.6535 201.338 27.6345C202.19 27.5779 205.086 25.8796 204.745 25.8796Z" fill="#263238"/>
<path d="M198.727 40.1452C198.386 38.8431 196.796 38.2771 195.774 39.1828C195.206 39.6923 194.922 40.4848 195.263 41.8434C196.172 45.4665 199.635 43.8248 199.635 43.7116C199.635 43.5983 199.124 41.617 198.727 40.1452Z" fill="#FFBE9D"/>
<path d="M198.216 42.5794C198.216 42.5794 198.159 42.636 198.045 42.6926C197.932 42.7492 197.761 42.8624 197.591 42.8058C197.193 42.7492 196.682 42.2397 196.512 41.5604C196.399 41.2207 196.399 40.8811 196.455 40.598C196.512 40.315 196.626 40.0886 196.796 39.9753C196.966 39.8621 197.137 39.9753 197.193 40.0319C197.25 40.1452 197.25 40.2018 197.307 40.2018C197.307 40.2018 197.364 40.1452 197.307 39.9753C197.25 39.9187 197.193 39.8055 197.08 39.8055C196.966 39.7489 196.853 39.7489 196.682 39.8055C196.399 39.9187 196.228 40.2018 196.171 40.5414C196.115 40.8811 196.115 41.2207 196.228 41.617C196.455 42.3529 196.966 42.919 197.534 42.9756C197.818 42.9756 197.988 42.8624 198.102 42.7492C198.216 42.6926 198.216 42.5794 198.216 42.5794Z" fill="#EB996E"/>
<path d="M218.315 35.0503C218.315 35.0503 218.656 34.8239 219.11 34.2012C219.565 33.6351 220.132 32.6727 220.246 31.3707C220.303 30.748 220.303 30.0121 220.019 29.2761C219.792 28.5402 219.394 27.8043 218.713 27.2382C217.464 26.106 215.363 25.5399 213.489 26.2192C213.319 26.2759 213.149 26.3325 212.978 26.4457C212.808 26.5023 212.694 26.6155 212.524 26.6721L212.297 26.7853V26.5589C212.297 26.106 212.127 25.7098 211.843 25.3701C211.559 25.0304 211.161 24.804 210.821 24.6342C210.026 24.2945 209.174 24.2945 208.379 24.4643C206.789 24.804 205.483 25.5399 204.234 25.6531C202.985 25.823 201.963 25.4833 201.395 25.0871C201.111 24.8606 200.941 24.6908 200.828 24.521C200.714 24.3511 200.714 24.2945 200.714 24.2945C200.771 24.2945 200.884 24.6342 201.452 25.0304C202.02 25.4267 202.985 25.6531 204.178 25.4833C204.745 25.3701 205.427 25.2003 206.108 24.9172C206.789 24.6908 207.527 24.3511 208.322 24.1813C208.72 24.0681 209.174 24.0115 209.628 24.0681C210.083 24.0681 210.537 24.1813 210.934 24.3511C211.388 24.521 211.786 24.804 212.07 25.1437C212.41 25.4833 212.581 25.9928 212.581 26.5023L212.354 26.3891C212.524 26.2758 212.638 26.2192 212.808 26.106C212.978 26.0494 213.149 25.9362 213.319 25.8796C215.306 25.2003 217.521 25.7664 218.826 26.9552C219.508 27.5779 219.962 28.3138 220.189 29.1063C220.416 29.8989 220.473 30.6348 220.359 31.3141C220.189 32.6727 219.621 33.6351 219.11 34.2012C218.883 34.4842 218.656 34.654 218.486 34.7673C218.429 34.9937 218.372 35.0503 218.315 35.0503Z" fill="#455A64"/>
<path d="M217.577 22.2566C217.577 22.3132 217.18 21.9735 216.385 21.8603C215.987 21.8037 215.533 21.8037 214.965 21.9735C214.454 22.1434 213.887 22.483 213.546 22.9925L213.432 23.219L213.319 22.9925C212.865 21.7471 211.502 20.6149 209.855 20.4451C208.606 20.2753 207.471 20.8414 206.505 21.4075C205.54 21.9735 204.688 22.483 203.893 22.7661C203.099 23.0491 202.36 23.1057 201.906 22.9925C201.679 22.9359 201.509 22.8793 201.395 22.8227C201.282 22.7661 201.225 22.7661 201.225 22.7095C201.225 22.7095 201.452 22.7661 201.963 22.8227C202.417 22.8793 203.099 22.8227 203.893 22.483C204.688 22.2 205.483 21.6339 206.449 21.0678C206.903 20.7847 207.471 20.5017 208.038 20.2753C208.606 20.0488 209.287 19.9356 209.969 20.0488C211.729 20.2187 213.148 21.5207 213.659 22.8227H213.432C213.887 22.2566 214.454 21.8603 215.022 21.7471C215.59 21.5773 216.101 21.5773 216.498 21.6905C216.896 21.7471 217.18 21.9169 217.407 22.0302C217.52 22.1434 217.577 22.2 217.577 22.2566Z" fill="#455A64"/>
<path d="M210.139 41.7868C209.855 41.5604 209.515 41.4472 209.117 41.5038C208.777 41.5604 208.379 41.8434 208.152 42.1831C208.152 42.1831 208.152 42.2397 208.095 42.2397C208.038 42.3529 207.982 42.5228 207.982 42.6926C208.038 43.0322 208.266 43.3153 208.549 43.4851C209.004 43.7116 209.685 43.6549 210.026 43.2587C210.48 42.8624 210.537 42.1831 210.139 41.7868Z" fill="#E8505B"/>
<path d="M210.423 43.5417C210.366 43.5417 210.31 43.3719 210.196 43.1455C210.026 42.919 209.799 42.636 209.401 42.4661C209.004 42.2963 208.606 42.2963 208.322 42.3529C208.038 42.4095 207.868 42.4661 207.868 42.4095C207.868 42.3529 207.982 42.2397 208.266 42.1265C208.55 42.0133 209.061 42.0133 209.515 42.1831C209.969 42.4095 210.253 42.7492 210.366 43.0888C210.48 43.3153 210.423 43.5417 210.423 43.5417Z" fill="#263238"/>
<path d="M203.156 94.3204C203.156 94.3204 217.237 95.1129 225.526 95.2261C231.942 95.2827 234.838 93.5844 236.144 89.452C237.223 85.9988 234.895 79.3755 234.895 79.3755C230.523 79.3755 227.854 79.9982 225.072 81.3002L225.81 84.3571L203.156 86.2818V94.3204Z" fill="#FFBE9D"/>
<path d="M230.523 87.5272C230.466 87.5838 229.785 86.3384 228.422 85.4327C227.059 84.4703 225.64 84.3005 225.697 84.2439C225.697 84.1873 226.037 84.1873 226.605 84.3005C227.173 84.4137 227.911 84.6968 228.592 85.2062C229.331 85.7157 229.842 86.2818 230.125 86.7347C230.409 87.1876 230.523 87.5272 230.523 87.5272Z" fill="#EB996E"/>
<path d="M197.989 81.2436C197.989 81.2436 193.617 82.2626 190.437 84.4137L193.844 93.641C194.979 96.6413 198.443 98.1698 201.225 96.5847C205.483 94.1505 207.016 87.0177 207.016 87.0177L211.729 66.695L203.95 61.8266L197.989 81.2436Z" fill="#FFBE9D"/>
<path d="M203.894 61.8266L204.234 55.1467L202.474 48.3535C202.361 47.9573 202.304 47.5044 202.644 47.2779C202.985 47.0515 203.439 47.0515 203.667 47.3346C204.178 47.844 206.449 53.788 206.449 53.788C206.449 53.788 209.912 51.7501 210.48 51.6369C211.105 51.5237 211.843 53.3918 211.899 53.505C211.956 53.6748 211.899 54.7504 211.899 54.7504C211.899 54.7504 214.057 54.807 214.227 55.09C214.398 55.3731 214.455 56.9015 214.455 56.9015C214.455 56.9015 215.363 57.1846 215.477 57.8639C215.647 58.5432 215.931 59.6754 215.477 59.9018C215.079 60.1283 214.171 60.6378 214.171 60.6378C214.171 60.6378 213.83 64.0909 213.716 64.4306C213.603 64.7703 211.616 66.695 211.616 66.695L203.894 61.8266Z" fill="#FFBE9D"/>
<path d="M196.683 96.698C196.683 96.698 196.91 96.8112 197.307 96.981C197.762 97.1508 198.443 97.2641 199.295 97.1508C200.146 97.0376 201.225 96.6413 202.19 95.7922C203.156 94.9431 204.121 93.8109 204.916 92.3956C205.313 91.6597 205.654 90.9238 205.995 90.0747C206.278 89.2255 206.506 88.3198 206.733 87.3574C207.187 85.4327 207.641 83.3947 208.152 81.187C209.174 76.8281 210.31 71.9597 211.559 66.695V66.6384L211.616 66.5818C212.013 66.1855 212.411 65.7892 212.808 65.393C212.978 65.1665 213.205 64.9967 213.376 64.7703C213.489 64.657 213.546 64.5438 213.66 64.4306C213.716 64.374 213.716 64.2042 213.773 64.0909C213.944 62.9588 214.057 61.77 214.171 60.5812V60.5245L214.227 60.4679C214.568 60.2415 214.966 60.0717 215.306 59.8452C215.363 59.7886 215.533 59.732 215.533 59.6754C215.59 59.6188 215.647 59.5622 215.647 59.5056C215.704 59.3358 215.647 59.1093 215.647 58.9395C215.59 58.5432 215.477 58.0903 215.42 57.6941C215.306 57.3544 214.909 57.128 214.511 56.9582L214.398 56.9015V56.7883C214.398 56.4487 214.341 56.109 214.341 55.7694C214.341 55.5995 214.284 55.4297 214.284 55.2599C214.284 55.2033 214.227 55.09 214.227 55.0334C214.227 54.9768 214.227 55.0334 214.171 54.9768C214.114 54.9768 214.114 54.9202 214.057 54.9202C213.433 54.7504 212.694 54.6938 211.956 54.6938H211.786V54.524C211.786 54.1843 211.786 53.788 211.786 53.3918C211.786 53.2785 211.729 53.1653 211.672 52.9955C211.616 52.8823 211.559 52.7125 211.502 52.5992C211.389 52.3162 211.218 52.0897 211.048 51.8633C210.934 51.7501 210.877 51.6369 210.764 51.5803C210.65 51.5237 210.594 51.5237 210.48 51.5237C210.196 51.6369 209.969 51.7501 209.685 51.8633C208.606 52.4294 207.584 52.9955 206.562 53.6182L206.392 53.7314L206.335 53.5616C205.824 52.203 205.256 50.9009 204.745 49.5989C204.461 48.9196 204.234 48.2969 203.95 47.6742C203.837 47.3346 203.61 47.1647 203.326 47.1081C203.042 47.0515 202.701 47.1081 202.588 47.3912C202.531 47.5044 202.474 47.6742 202.474 47.7874C202.474 47.9007 202.531 48.1271 202.588 48.2403C202.701 48.58 202.758 48.9196 202.872 49.2027C203.042 49.8254 203.212 50.5047 203.383 51.1274C203.723 52.3728 204.064 53.6182 204.348 54.8636C204.234 57.1846 204.121 59.3924 204.007 61.5435C201.85 68.5065 200.089 74.2806 198.84 78.2999C198.216 80.2812 197.705 81.8663 197.364 82.9985C197.194 83.508 197.08 83.9608 196.967 84.2439C196.853 84.5269 196.796 84.6402 196.796 84.6402C196.796 84.6402 196.853 84.4703 196.91 84.1873C196.967 83.9042 197.137 83.508 197.251 82.9419C197.591 81.8663 198.045 80.2812 198.67 78.2433C199.919 74.1674 201.623 68.3933 203.723 61.4303V61.4869C203.837 59.3358 203.894 57.128 204.007 54.807V54.8636C203.667 53.6182 203.326 52.3728 203.042 51.1274C202.872 50.5047 202.701 49.8254 202.531 49.2027C202.417 48.863 202.361 48.58 202.247 48.2403C202.19 48.0705 202.134 47.9573 202.134 47.7308C202.134 47.561 202.134 47.3346 202.247 47.1647C202.361 46.9949 202.531 46.8251 202.701 46.7685C202.928 46.7119 203.099 46.7119 203.269 46.7685C203.439 46.8251 203.667 46.8817 203.78 47.0515C203.95 47.1647 204.007 47.3912 204.064 47.561C204.348 48.1837 204.575 48.863 204.859 49.4857C205.37 50.7877 205.938 52.0897 206.449 53.4484L206.222 53.3918C207.244 52.7691 208.266 52.203 209.344 51.6369C209.628 51.5237 209.855 51.3538 210.196 51.2406C210.253 51.2406 210.366 51.184 210.48 51.184C210.594 51.184 210.707 51.2406 210.764 51.2972C210.934 51.4104 211.048 51.5237 211.105 51.6369C211.275 51.8633 211.445 52.1464 211.616 52.4294C211.672 52.5426 211.729 52.7125 211.843 52.8257C211.9 52.9955 212.013 53.1087 212.013 53.2785C212.013 53.6748 212.013 54.0711 212.013 54.4107L211.843 54.2409C212.581 54.2975 213.262 54.2975 214 54.4673C214.057 54.4673 214.114 54.524 214.171 54.524C214.227 54.524 214.284 54.6372 214.341 54.6938C214.398 54.807 214.398 54.8636 214.455 54.9768C214.511 55.1467 214.511 55.3165 214.511 55.4863C214.568 55.826 214.568 56.1656 214.568 56.5053L214.455 56.3921C214.909 56.5619 215.306 56.7883 215.533 57.2978C215.647 57.7507 215.76 58.147 215.817 58.5998C215.817 58.8263 215.874 59.0527 215.817 59.2791C215.817 59.3924 215.704 59.5622 215.59 59.6188C215.477 59.732 215.42 59.732 215.306 59.7886C214.966 60.0151 214.568 60.1849 214.227 60.4113L214.284 60.2981C214.171 61.4869 214.057 62.6191 213.887 63.8079L213.83 64.0343C213.83 64.0909 213.773 64.2042 213.716 64.2608C213.603 64.374 213.546 64.4872 213.433 64.6004C213.262 64.8269 213.035 64.9967 212.865 65.2231C212.467 65.6194 212.07 66.0157 211.672 66.4119L211.729 66.3553C210.48 71.62 209.344 76.4884 208.266 80.8473C207.755 83.0551 207.244 85.093 206.789 86.9611C206.562 87.9235 206.335 88.8292 206.051 89.6784C205.767 90.5275 205.37 91.3201 204.972 92.056C204.178 93.4712 203.156 94.6034 202.19 95.5092C201.168 96.3583 200.089 96.7546 199.181 96.8112C198.273 96.9244 197.591 96.7546 197.137 96.5847C196.91 96.5281 196.74 96.4149 196.683 96.3583C196.74 96.698 196.683 96.698 196.683 96.698Z" fill="#EB996E"/>
<path d="M211.956 54.7504C211.956 54.807 211.786 54.807 211.445 54.807C211.161 54.807 210.764 54.807 210.31 54.9202C209.912 55.0334 209.572 55.2599 209.345 55.4297C209.117 55.5995 209.061 55.7694 209.004 55.7694C208.947 55.7694 209.004 55.5429 209.174 55.3165C209.345 55.0334 209.742 54.7504 210.196 54.6372C210.65 54.5239 211.105 54.5239 211.389 54.5806C211.786 54.6372 211.956 54.6938 211.956 54.7504Z" fill="#EB996E"/>
<path d="M210.253 54.807C210.196 54.7504 210.196 54.5806 210.253 54.4107C210.31 54.2409 210.423 54.0711 210.537 54.1277C210.594 54.1843 210.594 54.3541 210.537 54.5239C210.48 54.6938 210.366 54.807 210.253 54.807Z" fill="#EB996E"/>
<path d="M214.625 56.8449C214.625 56.9582 213.887 57.0148 212.921 57.0714C212.467 57.128 212.127 57.2978 211.956 57.5242C211.786 57.7507 211.843 57.9205 211.786 57.9771C211.786 57.9771 211.616 57.8073 211.729 57.4676C211.786 57.2978 211.956 57.128 212.127 57.0148C212.354 56.9015 212.581 56.8449 212.808 56.7883C213.83 56.7317 214.625 56.7883 214.625 56.8449Z" fill="#EB996E"/>
<path d="M214.227 58.8829C214.284 58.8829 214.341 59.2791 214.341 59.8452C214.341 60.3547 214.227 60.751 214.171 60.751C214.114 60.751 214.057 60.3547 214.057 59.7886C214.057 59.2791 214.114 58.8829 214.227 58.8829Z" fill="#EB996E"/>
<path d="M187.03 64.1476C187.03 64.1476 186.803 64.374 186.519 64.8269C186.235 65.2797 185.895 66.0157 185.724 66.978C185.554 67.9404 185.554 69.0726 185.611 70.3746C185.668 71.6766 185.781 73.0352 185.951 74.5071C186.235 77.4508 186.746 80.1114 187.144 81.9795C187.371 82.9419 187.541 83.6778 187.655 84.2439C187.712 84.4703 187.768 84.6968 187.825 84.8666C187.882 84.9798 187.882 85.093 187.882 85.093C187.882 85.093 187.882 85.0364 187.825 84.8666C187.768 84.6968 187.712 84.4703 187.655 84.2439C187.541 83.7344 187.314 82.9419 187.087 82.0361C186.633 80.168 186.179 77.5074 185.838 74.5637C185.668 73.0918 185.554 71.6766 185.497 70.3746C185.44 69.0726 185.44 67.9404 185.611 66.978C185.781 66.0157 186.122 65.2797 186.406 64.8269C186.803 64.3174 187.03 64.1476 187.03 64.1476Z" fill="white"/>
<path d="M198.954 56.4487C198.954 56.4487 198.897 56.4487 198.84 56.5053C198.727 56.5619 198.613 56.6185 198.443 56.6751C198.102 56.8449 197.648 57.0714 197.08 57.3544C195.945 57.9771 194.412 58.8829 192.822 60.0151C191.175 61.1473 189.756 62.1662 188.734 62.9021C188.279 63.2418 187.825 63.5248 187.485 63.8079C187.371 63.8645 187.257 63.9777 187.144 64.0343C187.087 64.0909 187.03 64.0909 187.03 64.0909C187.03 64.0909 187.087 64.0343 187.144 63.9777C187.257 63.9211 187.371 63.8079 187.485 63.7513C187.825 63.4682 188.223 63.1852 188.734 62.8455C189.756 62.053 191.175 61.034 192.822 59.9018C194.468 58.7697 195.945 57.8639 197.137 57.2412C197.705 56.9582 198.159 56.7317 198.5 56.5619C198.613 56.5053 198.784 56.4487 198.897 56.3921C198.897 56.4487 198.954 56.4487 198.954 56.4487Z" fill="white"/>
<path d="M226.037 60.1283C226.037 60.1283 225.981 60.1283 225.924 60.0717C225.867 60.0151 225.754 59.9018 225.697 59.8452C225.47 59.6754 225.129 59.3924 224.675 59.1093C223.823 58.5432 222.517 57.8639 221.041 57.2412C219.565 56.6751 218.145 56.2222 217.123 55.9392C216.612 55.826 216.215 55.7127 215.931 55.5995C215.817 55.5429 215.704 55.5429 215.59 55.5429C215.533 55.5429 215.477 55.4863 215.477 55.4863C215.477 55.4863 215.533 55.4863 215.59 55.4863C215.704 55.4863 215.817 55.5429 215.931 55.5429C216.215 55.5995 216.612 55.7127 217.123 55.826C218.145 56.109 219.565 56.5053 221.041 57.0714C222.517 57.6941 223.823 58.3168 224.675 58.9395C225.64 59.6188 226.037 60.1283 226.037 60.1283Z" fill="white"/>
<path d="M199.124 103.321C199.124 103.321 199.067 103.321 198.897 103.265C198.783 103.208 198.556 103.095 198.329 102.982C197.875 102.699 197.25 102.132 197.08 101.34C196.91 100.547 197.08 99.7549 197.307 99.2454C197.421 99.0189 197.534 98.7925 197.648 98.6793C197.761 98.5661 197.818 98.5095 197.818 98.5095C197.818 98.5095 197.591 98.7925 197.421 99.2454C197.194 99.6983 197.08 100.491 197.25 101.283C197.421 102.076 197.989 102.585 198.443 102.925C198.84 103.208 199.124 103.321 199.124 103.321Z" fill="white"/>
<path d="M197.307 97.2075C197.364 97.2075 197.478 97.4905 197.591 97.9434C197.705 98.3396 197.761 98.6793 197.761 98.6793C197.705 98.6793 197.591 98.3963 197.478 97.9434C197.364 97.5471 197.307 97.2075 197.307 97.2075Z" fill="white"/>
<path d="M204.972 224.126L222.29 224.013L221.949 164.29L221.836 103.604L198.386 103.321L194.184 111.247C192.481 114.417 191.345 117.926 190.948 121.493C190.664 124.21 192.708 133.154 193.446 135.475L199.919 155.911L204.972 224.126Z" fill="#253359"/>
<path d="M226.946 103.718L245.967 155.459C248.181 162.365 247.443 169.271 243.639 175.668L221.552 218.691L209.117 203.18L227.627 164.686L211.332 138.362L214.057 103.831L221.722 103.718H226.946Z" fill="#253359"/>
<path d="M217.528 121C217.528 121 217.528 121.113 217.528 121.283C217.528 121.452 217.528 121.735 217.667 122.075C217.806 122.753 217.945 123.772 218.083 125.072C218.361 127.674 218.778 131.464 219.333 136.102C219.889 140.74 220.445 146.283 221.139 152.449C221.417 155.503 221.833 158.727 222.25 162.121C222.528 163.818 222.389 165.515 222.389 167.211C222.389 168.965 222.389 170.718 222.389 172.472C222.389 186.669 222.528 199.565 222.528 208.898C222.528 213.536 222.528 217.326 222.528 219.928C222.528 221.228 222.528 222.247 222.528 222.925C222.528 223.265 222.528 223.491 222.528 223.717C222.528 223.887 222.528 224 222.528 224C222.528 224 222.528 223.887 222.528 223.717C222.528 223.547 222.528 223.265 222.528 222.925C222.528 222.247 222.528 221.228 222.389 219.928C222.389 217.326 222.25 213.536 222.25 208.898C222.111 199.565 221.972 186.725 221.833 172.472C221.833 170.718 221.833 168.965 221.833 167.211C221.833 165.458 221.972 163.761 221.694 162.121C221.278 158.784 221 155.56 220.722 152.449C220.028 146.283 219.472 140.74 219.056 136.102C218.639 131.464 218.222 127.674 217.945 125.072C217.806 123.772 217.806 122.753 217.667 122.075C217.667 121.735 217.667 121.509 217.667 121.283C217.528 121.057 217.528 121 217.528 121Z" fill="black"/>
<path d="M219.848 104.736C219.848 104.736 219.905 104.906 219.962 105.303C220.019 105.642 220.076 106.208 220.189 106.831C220.359 108.133 220.473 109.945 220.587 111.983C220.7 114.02 220.7 115.832 220.643 117.134C220.643 117.813 220.587 118.323 220.587 118.719C220.587 119.115 220.53 119.285 220.53 119.285C220.473 119.285 220.473 118.493 220.473 117.134C220.473 115.832 220.416 114.02 220.303 111.983C220.189 110.001 220.076 108.19 219.962 106.831C219.848 105.529 219.792 104.736 219.848 104.736Z" fill="black"/>
<path d="M215.987 105.869C216.044 105.925 215.704 106.039 215.59 106.491C215.533 106.718 215.59 107.001 215.817 107.171C216.044 107.341 216.385 107.454 216.669 107.341C216.953 107.227 217.123 106.888 217.123 106.605C217.123 106.322 216.953 106.095 216.726 105.982C216.328 105.812 216.044 105.925 215.987 105.869C215.987 105.869 216.044 105.812 216.215 105.755C216.385 105.699 216.612 105.699 216.839 105.812C217.066 105.925 217.35 106.208 217.407 106.605C217.407 107.001 217.237 107.454 216.839 107.624C216.385 107.793 215.931 107.68 215.704 107.397C215.42 107.114 215.363 106.718 215.476 106.491C215.533 106.208 215.704 106.039 215.817 105.982C215.931 105.869 215.987 105.869 215.987 105.869Z" fill="black"/>
<path d="M206.903 104.85C206.903 104.85 207.016 105.02 207.073 105.416C207.13 105.755 207.187 106.322 207.13 106.944C207.073 107.567 206.846 108.359 206.449 109.152C206.051 109.945 205.427 110.68 204.632 111.303C203.78 111.869 202.872 112.209 202.02 112.322C201.168 112.435 200.373 112.379 199.749 112.266C199.124 112.096 198.613 111.926 198.329 111.699C197.989 111.53 197.875 111.416 197.875 111.36C197.875 111.303 198.556 111.756 199.805 112.039C201.055 112.266 202.928 112.152 204.518 111.077C206.108 109.945 206.789 108.19 206.96 106.944C207.073 105.642 206.846 104.85 206.903 104.85Z" fill="black"/>
<path d="M229.217 109.831C229.217 109.888 228.763 109.888 228.138 109.718C227.457 109.548 226.605 109.095 225.924 108.303C225.242 107.51 224.845 106.605 224.731 105.925C224.618 105.246 224.675 104.85 224.731 104.85C224.788 104.85 224.788 105.246 224.959 105.925C225.129 106.548 225.526 107.397 226.208 108.133C226.889 108.869 227.684 109.322 228.309 109.548C228.763 109.718 229.217 109.775 229.217 109.831Z" fill="black"/>
<path d="M235.974 165.592C235.974 165.592 235.633 165.988 234.951 166.384C234.611 166.611 234.157 166.837 233.646 166.95C233.135 167.063 232.51 167.12 231.885 166.894C230.693 166.497 229.898 165.592 229.444 164.969C228.99 164.346 228.763 163.893 228.763 163.893C228.819 163.893 229.103 164.233 229.614 164.856C230.125 165.422 230.863 166.271 231.942 166.611C233.078 167.007 234.1 166.554 234.781 166.214C235.519 165.818 235.917 165.535 235.974 165.592Z" fill="black"/>
<path d="M231.602 168.875C231.545 168.932 230.75 167.913 229.785 166.611C228.876 165.309 228.195 164.233 228.252 164.176C228.308 164.12 229.103 165.139 230.069 166.441C230.977 167.743 231.715 168.818 231.602 168.875Z" fill="black"/>
</g>
<defs>
<clipPath id="clip0">
<rect width="299.056" height="242.992" fill="white"/>
</clipPath>
</defs>
</svg>
