<svg width="517" height="932" viewBox="0 0 517 932" fill="none" xmlns="http://www.w3.org/2000/svg">
<g opacity="0.2" filter="url(#filter0_d)">
<path d="M476.849 223.473C476.837 223.438 476.826 223.392 476.814 223.357C476.721 223.101 476.581 222.868 476.418 222.647C476.395 222.612 476.372 222.589 476.348 222.566C475.976 222.112 475.464 221.786 474.882 221.647C474.673 221.6 474.452 221.554 474.231 221.554H473.393V102.19C473.393 73.3466 470.112 55.4985 452.183 37.9296C443.84 29.7502 428.133 20 400.581 20H115.849C88.3319 20 72.6013 29.7502 64.259 37.9296C46.3411 55.4868 43.06 73.3466 43.06 102.19V138.154H42.0012C41.8383 138.154 41.6871 138.212 41.5358 138.247V138.212C41.4776 138.224 41.4427 138.258 41.3846 138.27C41.2799 138.305 41.1868 138.351 41.0821 138.398C40.9657 138.456 40.861 138.538 40.7563 138.619C40.6748 138.677 40.5934 138.747 40.5236 138.817C40.4189 138.933 40.3491 139.061 40.2676 139.189C40.2327 139.259 40.1745 139.329 40.1513 139.41C40.0582 139.631 40 139.876 40 140.132V169.208C40 169.464 40.0582 169.708 40.1513 169.929C40.1745 170.01 40.2327 170.069 40.2676 170.15C40.3374 170.278 40.4189 170.406 40.5236 170.522C40.5934 170.592 40.6632 170.662 40.7563 170.72C40.861 170.802 40.9541 170.871 41.0821 170.941C41.1751 170.988 41.2799 171.034 41.3846 171.069C41.4311 171.081 41.4776 171.116 41.5358 171.127V171.092C41.6871 171.127 41.8383 171.186 42.0012 171.186H43.06V199.819H42.0012C41.8383 199.819 41.6871 199.878 41.5358 199.912V199.878C41.4776 199.889 41.4427 199.924 41.3846 199.936C41.2799 199.971 41.1868 200.017 41.0821 200.064C40.9657 200.122 40.861 200.203 40.7563 200.285C40.6748 200.355 40.5934 200.413 40.5236 200.483C40.4189 200.599 40.3491 200.727 40.2676 200.855C40.2327 200.925 40.1745 200.994 40.1513 201.076C40.0582 201.297 40 201.541 40 201.797V260.356C40 260.612 40.0582 260.845 40.1513 261.078C40.1745 261.159 40.2327 261.217 40.2676 261.299C40.3374 261.438 40.4189 261.566 40.5236 261.671C40.5934 261.753 40.6632 261.811 40.7563 261.869C40.861 261.962 40.9541 262.02 41.0821 262.09C41.1751 262.148 41.2799 262.183 41.3846 262.218C41.4311 262.241 41.4776 262.265 41.5242 262.276V262.241C41.6754 262.276 41.8267 262.334 41.9896 262.334H43.0484V278.879H42.0012C41.8383 278.879 41.6871 278.938 41.5358 278.972V278.938C41.4776 278.949 41.4427 278.984 41.3846 278.996C41.2799 279.031 41.1868 279.077 41.0821 279.124C40.9657 279.182 40.861 279.263 40.7563 279.345C40.6748 279.415 40.5934 279.473 40.5236 279.543C40.4189 279.659 40.3491 279.787 40.2676 279.915C40.2327 279.985 40.1745 280.054 40.1513 280.136C40.0582 280.357 40 280.601 40 280.857V339.416C40 339.672 40.0582 339.905 40.1513 340.138C40.1745 340.219 40.2327 340.277 40.2676 340.359C40.3374 340.498 40.4189 340.626 40.5236 340.731C40.5934 340.813 40.6632 340.871 40.7563 340.929C40.861 341.022 40.9541 341.08 41.0821 341.15C41.1751 341.208 41.2799 341.243 41.3846 341.278C41.4311 341.301 41.4776 341.325 41.5242 341.336V341.301C41.6754 341.336 41.8267 341.394 41.9896 341.394H43.0484V804.003C43.0484 832.846 46.3295 850.694 64.2474 868.263C72.5897 876.443 88.3086 886.181 115.849 886.181H400.581C428.121 886.181 443.84 876.431 452.183 868.263C470.112 850.694 473.393 832.835 473.393 804.003V320.044H474.231C474.452 320.044 474.673 320.009 474.882 319.963C475.464 319.823 475.976 319.486 476.348 319.043C476.372 319.02 476.395 318.985 476.418 318.962C476.581 318.753 476.721 318.508 476.814 318.252C476.826 318.206 476.837 318.171 476.849 318.136C476.942 317.868 477 317.589 477 317.287V224.323C477 224.032 476.942 223.741 476.849 223.473Z" fill="#F9F6F0"/>
<path d="M115.86 876.803L115.837 866.076V876.803C91.5083 876.803 77.9651 868.531 70.891 861.585C55.2768 846.285 52.5309 830.857 52.5309 804.084V102.19C52.5309 75.4292 55.2768 59.9896 70.891 44.6895C77.9651 37.755 91.5199 29.4709 115.849 29.4709H400.581C424.933 29.4709 438.476 37.7434 445.551 44.6895C461.165 59.9896 463.911 75.4176 463.911 102.19V804.084C463.911 830.845 461.165 846.273 445.551 861.585C438.476 868.519 424.933 876.803 400.593 876.803H115.86Z" fill="black"/>
<rect x="190" y="844.991" width="138" height="5" rx="2.5" fill="black"/>
</g>
<defs>
<filter id="filter0_d" x="0" y="0" width="517" height="946.181" filterUnits="userSpaceOnUse" color-interpolation-filters="sRGB">
<feFlood flood-opacity="0" result="BackgroundImageFix"/>
<feColorMatrix in="SourceAlpha" type="matrix" values="0 0 0 0 0 0 0 0 0 0 0 0 0 0 0 0 0 0 127 0"/>
<feOffset dy="20"/>
<feGaussianBlur stdDeviation="20"/>
<feColorMatrix type="matrix" values="0 0 0 0 0 0 0 0 0 0 0 0 0 0 0 0 0 0 0.25 0"/>
<feBlend mode="normal" in2="BackgroundImageFix" result="effect1_dropShadow"/>
<feBlend mode="normal" in="SourceGraphic" in2="effect1_dropShadow" result="shape"/>
</filter>
</defs>
</svg>
