<svg width="207" height="34" viewBox="0 0 207 34" fill="none" xmlns="http://www.w3.org/2000/svg">
<path d="M51.4957 9.7732C48.9393 9.7732 46.0487 10.8336 44.2199 12.6796V0.779181C44.2199 0.563167 44.0429 0.386429 43.8266 0.386429H40.4836C40.2673 0.386429 40.0903 0.563167 40.0903 0.779181V21.1434C40.0903 24.2657 41.2112 27.1525 43.2563 29.2733C45.3014 31.4138 48.4674 32.5921 51.4564 32.5921C57.5917 32.5921 62.7831 27.5649 62.7831 21.1434C62.7831 18.021 61.6622 15.1343 59.6171 13.033C57.572 10.9318 54.4454 9.7732 51.4957 9.7732ZM51.4564 28.6253C47.7595 28.6253 44.3575 25.2673 44.3575 21.1434C44.3378 17.0587 47.7595 13.74 51.4564 13.74C55.1336 13.74 58.5159 17.0587 58.5159 21.1434C58.5159 25.3262 55.1926 28.6253 51.4564 28.6253Z" fill="#1ABFF3"/>
<path d="M87.8356 10.3034H84.3746C84.1583 10.3034 83.9813 10.4802 83.9813 10.6962V23.4213C83.9813 26.4259 82.0149 28.4486 79.0652 28.4486C76.0959 28.4486 74.1098 26.4259 74.1098 23.4213V10.6962C74.1098 10.4802 73.9328 10.3034 73.7165 10.3034H70.2949C70.0786 10.3034 69.9016 10.4802 69.9016 10.6962V23.4213C69.9016 26.092 70.8258 28.3896 72.5563 30.0785C74.2278 31.6888 76.5285 32.5921 79.0652 32.5921C81.6019 32.5921 83.9223 31.7084 85.5742 30.0785C87.3046 28.3896 88.2289 26.092 88.2289 23.4213V10.6962C88.2289 10.4802 88.0519 10.3034 87.8356 10.3034Z" fill="#1ABFF3"/>
<path d="M110.843 24.7763H107.244C107.107 24.7763 106.969 24.8549 106.89 24.9727C105.573 27.3685 103.587 28.5271 100.834 28.5271C98.6314 28.5271 96.6256 27.5059 95.3474 25.7975L111.04 19.1796C111.217 19.101 111.315 18.9243 111.276 18.7279C110.666 16.0376 109.29 13.7596 107.264 12.1297C105.376 10.6176 103.017 9.77319 100.637 9.77319C94.5805 9.77319 89.6644 14.8986 89.6644 21.2219C89.6644 27.5845 94.5805 32.5724 100.834 32.5724C105.809 32.5724 109.506 29.9999 111.197 25.3065C111.236 25.1887 111.217 25.0512 111.158 24.9531C111.099 24.8549 110.981 24.7763 110.843 24.7763ZM100.637 13.8382C102.761 13.8382 104.806 15.0361 106.065 16.9606L93.9709 22.0467C93.9316 21.7718 93.9316 21.4772 93.9316 21.1826C93.9316 16.6464 97.4122 13.8382 100.637 13.8382Z" fill="#1ABFF3"/>
<path d="M68.0137 0.386429H64.5921C64.3758 0.386429 64.1989 0.563167 64.1989 0.779181V32.1797C64.1989 32.3957 64.3758 32.5724 64.5921 32.5724H68.0137C68.2301 32.5724 68.407 32.3957 68.407 32.1797V0.779181C68.407 0.563167 68.2301 0.386429 68.0137 0.386429Z" fill="#1ABFF3"/>
<path fill-rule="evenodd" clip-rule="evenodd" d="M118.845 5.42337L118.847 5.4213L118.849 5.41921C119.575 4.72977 120.62 4.43735 122.212 4.55978L122.669 4.59491V0.495936L122.294 0.452191C119.661 0.145007 117.494 0.712215 115.856 2.21223C114.081 3.80648 113.217 6.36057 113.217 9.60432V32.6185H117.625V14.3091H122.584V10.0279H117.625V9.60432C117.625 8.88328 117.687 8.05139 117.877 7.28543C118.069 6.51365 118.38 5.85242 118.845 5.42337Z" fill="#0098C8"/>
<path fill-rule="evenodd" clip-rule="evenodd" d="M133.029 9.39213C126.585 9.39213 121.628 14.776 121.628 21.3444C121.628 27.8322 126.589 33.1695 133.029 33.1695C139.514 33.1695 144.431 27.8311 144.431 21.3444C144.431 14.7771 139.518 9.39213 133.029 9.39213ZM133.029 28.8459C129.267 28.8459 126.121 25.5068 126.121 21.3444C126.121 17.0881 129.276 13.6734 133.029 13.6734C136.827 13.6734 139.98 17.0898 139.98 21.3444C139.98 25.5052 136.835 28.8459 133.029 28.8459Z" fill="#0098C8"/>
<path d="M145.993 19.2252V32.6185H150.401V19.1405C150.401 17.1341 151.036 15.7114 152.107 14.8264C153.185 13.9351 154.776 13.5296 156.805 13.714L157.267 13.7561V9.56658L156.893 9.52223C153.939 9.17215 151.21 9.85795 149.212 11.525C147.21 13.1965 145.993 15.8139 145.993 19.2252Z" fill="#0098C8"/>
<path d="M179.739 9.39213C176.884 9.39213 174.606 10.6322 173.174 12.6364C171.774 10.6301 169.495 9.39213 166.643 9.39213C161.483 9.39213 157.869 13.2355 157.869 18.2081V32.6185H162.32V18.0809C162.32 16.754 162.755 15.6223 163.498 14.8261C164.239 14.033 165.311 13.5462 166.643 13.5462C167.974 13.5462 169.046 14.033 169.787 14.8261C170.531 15.6223 170.965 16.754 170.965 18.0809V32.6185H175.416V18.0809C175.416 16.754 175.851 15.6223 176.595 14.8261C177.336 14.033 178.407 13.5462 179.739 13.5462C181.071 13.5462 182.142 14.033 182.883 14.8261C183.627 15.6223 184.062 16.754 184.062 18.0809V32.6185H188.512V18.2081C188.512 13.237 184.942 9.39213 179.739 9.39213Z" fill="#0098C8"/>
<path d="M206.06 14.3198V9.96767L205.661 9.94386C202.732 9.769 200.234 10.5547 198.478 12.2211L198.476 12.2223C196.402 14.2061 195.633 16.893 195.633 21.2596C195.633 24.9894 194.961 26.2432 194.154 27.0136C193.331 27.7991 191.891 28.292 190.057 28.2106L189.615 28.1909V32.5929L190.012 32.6177C192.822 32.7933 195.402 31.9606 197.197 30.2556L197.198 30.2546C199.271 28.2714 200.041 25.6278 200.041 21.2596C200.041 17.5452 200.707 16.2793 201.564 15.4198C202.581 14.4826 203.959 14.2673 205.625 14.309L206.06 14.3198Z" fill="#0098C8"/>
<path fill-rule="evenodd" clip-rule="evenodd" d="M19.2965 19.8805L14.6528 21.4664L14.6498 21.4674C14.4038 21.5495 14.1534 21.5918 13.9002 21.5918C13.1478 21.5918 12.5307 21.2752 12.0869 20.6649L12.0837 20.6603C11.8118 20.276 11.6753 19.8406 11.6753 19.3668C11.6753 19.1137 11.7176 18.8633 11.7996 18.6172L13.398 13.9588L13.3997 13.9544C13.526 13.6116 13.7139 13.3114 13.9651 13.0602L23.5621 3.46324C24.1961 2.82921 24.9726 2.50697 25.868 2.50697C26.7715 2.50697 27.5554 2.83336 28.1967 3.47463L29.7924 5.07034C30.4337 5.71161 30.7601 6.49552 30.7601 7.39905C30.7601 8.29447 30.4378 9.07094 29.8038 9.70496L20.1954 19.3134C19.9442 19.5645 19.644 19.7525 19.3013 19.8788L19.2965 19.8805ZM27.9898 6.88351L27.9871 6.88092L26.394 5.28779C26.2227 5.12893 26.0517 5.06487 25.868 5.06487C25.669 5.06487 25.5109 5.13034 25.37 5.27119L24.5638 6.07742L27.1793 8.70218L27.9845 7.89701C28.1232 7.75831 28.1908 7.59735 28.1908 7.38765C28.1908 7.16742 28.1214 7.01059 27.9898 6.88351ZM14.4387 18.8276L15.7598 14.9469C15.7839 14.8795 15.8212 14.82 15.8756 14.7656L22.7558 7.88538L25.3713 10.5101L18.5014 17.38C18.4469 17.4346 18.3874 17.4719 18.3197 17.496L14.4387 18.8276Z" fill="#1ABFF3"/>
<path d="M12.4316 7.59626H12.9476C13.6503 7.59626 14.2199 8.1659 14.2199 8.86858C14.2199 9.57126 13.6503 10.1409 12.9476 10.1409H12.4895C10.5036 10.1409 9.0932 10.142 7.99078 10.235C6.90398 10.3267 6.23289 10.5009 5.70252 10.7817C4.72578 11.2989 3.92701 12.0977 3.40985 13.0744C3.12904 13.6048 2.95481 14.2759 2.86309 15.3627C2.77006 16.4651 2.76901 17.8755 2.76901 19.8614V20.7775C2.76901 22.7635 2.77006 24.1738 2.86309 25.2763C2.95481 26.3631 3.12904 27.0342 3.40985 27.5645C3.92701 28.5413 4.72578 29.34 5.70252 29.8572C6.23289 30.138 6.90398 30.3122 7.99078 30.404C9.0932 30.497 10.5036 30.498 12.4895 30.498H13.4056C15.3916 30.498 16.802 30.497 17.9044 30.404C18.9912 30.3122 19.6623 30.138 20.1926 29.8572C21.1694 29.34 21.9681 28.5413 22.4853 27.5645C22.7661 27.0342 22.9403 26.3631 23.0321 25.2763C23.1251 24.1738 23.1261 22.7635 23.1261 20.7775V20.3195C23.1261 19.6168 23.6958 19.0471 24.3985 19.0471C25.1012 19.0471 25.6708 19.6168 25.6708 20.3195V20.8354C25.6708 22.7506 25.6708 24.2683 25.5677 25.4902C25.4622 26.7401 25.2421 27.796 24.7342 28.7552C23.9783 30.1828 22.8109 31.3502 21.3833 32.1061C20.4241 32.614 19.3682 32.8341 18.1183 32.9396C16.8964 33.0427 15.3787 33.0427 13.4635 33.0427H12.4316C10.5164 33.0427 8.99875 33.0427 7.77681 32.9396C6.52696 32.8341 5.47109 32.614 4.51181 32.1061C3.08426 31.3502 1.91683 30.1828 1.16099 28.7552C0.653071 27.796 0.432935 26.7401 0.327464 25.4902C0.224348 24.2683 0.224356 22.7506 0.224365 20.8354V19.8035C0.224356 17.8884 0.224348 16.3706 0.327464 15.1487C0.432935 13.8988 0.653071 12.843 1.16099 11.8837C1.91683 10.4562 3.08426 9.28872 4.51181 8.53288C5.47109 8.02496 6.52696 7.80483 7.77681 7.69936C8.99876 7.59624 10.5165 7.59625 12.4316 7.59626Z" fill="#1ABFF3"/>
<path d="M7.85829 23.7123C7.15561 23.7123 6.58597 24.282 6.58597 24.9846C6.58597 25.6873 7.15561 26.257 7.85829 26.257H18.461C19.1637 26.257 19.7333 25.6873 19.7333 24.9846C19.7333 24.282 19.1637 23.7123 18.461 23.7123H7.85829Z" fill="#1ABFF3"/>
</svg>
